<mxfile host="app.diagrams.net" modified="2020-12-10T16:54:52.899Z" agent="5.0 (Windows NT 6.1; Win64; x64) AppleWebKit/537.36 (KHTML, like Gecko) Chrome/86.0.4240.111 Safari/537.36" etag="mTrb_gRx-1FGMEBK0HHn" version="13.10.0" type="github">
  <diagram id="MU3LkrHhG0huVPVjn-0f" name="第 1 页">
    <mxGraphModel dx="868" dy="425" grid="1" gridSize="10" guides="1" tooltips="1" connect="1" arrows="1" fold="1" page="1" pageScale="1" pageWidth="827" pageHeight="1169" math="0" shadow="0">
      <root>
        <mxCell id="0" />
        <mxCell id="1" parent="0" />
        <mxCell id="mofK7MyqvyHUf5Rx0eA6-5" value="&lt;p style=&quot;margin: 0px ; margin-top: 4px ; text-align: center&quot;&gt;&lt;i&gt;&amp;lt;&amp;lt;抽象类&amp;gt;&amp;gt;&lt;/i&gt;&lt;br&gt;&lt;b&gt;AbstractOwnableSynchronizer&lt;/b&gt;&lt;br&gt;&lt;/p&gt;&lt;hr size=&quot;1&quot;&gt;&lt;p style=&quot;margin: 0px ; margin-left: 4px&quot;&gt;- exclusiveOwnerThread: Thread&lt;br&gt;&lt;/p&gt;&lt;hr size=&quot;1&quot;&gt;&lt;p style=&quot;margin: 0px ; margin-left: 4px&quot;&gt;- setExclusiveOwnerThread(Thread):void&lt;br&gt;- getExclusiveOwnerThread(): Thread&lt;/p&gt;" style="verticalAlign=top;align=left;overflow=fill;fontSize=12;fontFamily=Helvetica;html=1;" vertex="1" parent="1">
          <mxGeometry x="130" y="80" width="290" height="140" as="geometry" />
        </mxCell>
      </root>
    </mxGraphModel>
  </diagram>
</mxfile>
